<svg width="284" height="48" viewBox="0 0 284 48" fill="none" xmlns="http://www.w3.org/2000/svg">
<path d="M180.85 0.82764C160.654 1.56845 140.47 2.81098 120.32 4.55521C102.034 4.93934 83.7452 5.32346 65.4596 5.70759C45.3952 6.13091 25.3307 6.55031 5.26951 6.97363C3.32853 7.01283 0.322826 8.70219 0.025232 11.2539C-0.302122 14.0682 2.63414 14.5385 4.28745 14.5072C17.3254 14.2328 30.3633 13.9584 43.4013 13.684C37.9751 14.5033 32.5556 15.3538 27.1361 16.2436C25.2579 16.5532 22.6358 17.5958 22.0373 20.0299C21.5016 22.2014 23.1748 23.7418 24.9504 23.781C55.0604 24.3925 85.1736 25.0079 115.284 25.6193C121.692 25.7487 128.1 25.882 134.508 26.0113C125.289 27.2068 116.084 28.5826 106.905 30.1387C92.511 32.5845 78.1768 35.4851 63.9055 38.7893C62.3647 39.146 60.179 40.7452 59.9442 42.7952C59.7161 44.755 61.538 46.0367 62.9995 46.0524C97.2427 46.4052 131.486 46.7618 165.729 47.1146C175.384 47.2126 185.036 47.3145 194.692 47.4125C196.904 47.436 199.741 46.6874 200.855 44.1122C201.851 41.8074 199.986 39.8907 198.084 39.8711C165.121 39.5301 132.157 39.1891 99.1936 38.8481C100.113 38.6835 101.029 38.5149 101.948 38.3542C114.404 36.1671 126.903 34.3131 139.428 32.7962C164.492 29.7624 189.669 28.073 214.862 27.7399C215.976 27.7242 217.104 27.7163 218.228 27.7085C230.998 27.9672 243.765 28.2298 256.535 28.4885C258.744 28.5316 261.591 27.7477 262.699 25.1882C263.717 22.8364 261.812 21.0373 259.928 20.9471C246.896 20.3278 233.852 20.0613 220.811 20.1514C203.739 19.8026 186.667 19.4577 169.595 19.1088C139.485 18.4974 109.371 17.882 79.2614 17.2705C76.8344 17.2196 74.404 17.1725 71.977 17.1216C87.7429 15.1343 103.535 13.4528 119.347 12.0848C152.311 11.3911 185.278 10.7012 218.241 10.0074C238.306 9.58411 258.37 9.16471 278.431 8.74138C280.273 8.70219 282.978 7.20489 283.53 4.95502C284.073 2.7561 282.386 1.28232 280.617 1.20392C247.376 -0.262019 214.095 -0.391367 180.85 0.82764Z" fill="#3E399F"/>
</svg>
